<svg width="365" height="365" viewBox="0 0 365 365" fill="none" xmlns="http://www.w3.org/2000/svg">
<path d="M2.5 5C3.88071 5 5 3.88071 5 2.5C5 1.11929 3.88071 0 2.5 0C1.11929 0 0 1.11929 0 2.5C0 3.88071 1.11929 5 2.5 5Z" fill="#16181F"/>
<path d="M2.5 50C3.88071 50 5 48.8807 5 47.5C5 46.1193 3.88071 45 2.5 45C1.11929 45 0 46.1193 0 47.5C0 48.8807 1.11929 50 2.5 50Z" fill="#F3BB93"/>
<path d="M2.5 95C3.88071 95 5 93.8807 5 92.5C5 91.1193 3.88071 90 2.5 90C1.11929 90 0 91.1193 0 92.5C0 93.8807 1.11929 95 2.5 95Z" fill="#16181F"/>
<path d="M2.5 140C3.88071 140 5 138.881 5 137.5C5 136.119 3.88071 135 2.5 135C1.11929 135 0 136.119 0 137.5C0 138.881 1.11929 140 2.5 140Z" fill="#F3BB93"/>
<path d="M2.5 185C3.88071 185 5 183.881 5 182.5C5 181.119 3.88071 180 2.5 180C1.11929 180 0 181.119 0 182.5C0 183.881 1.11929 185 2.5 185Z" fill="#16181F"/>
<path d="M2.5 230C3.88071 230 5 228.881 5 227.5C5 226.119 3.88071 225 2.5 225C1.11929 225 0 226.119 0 227.5C0 228.881 1.11929 230 2.5 230Z" fill="#F3BB93"/>
<path d="M2.5 275C3.88071 275 5 273.881 5 272.5C5 271.119 3.88071 270 2.5 270C1.11929 270 0 271.119 0 272.5C0 273.881 1.11929 275 2.5 275Z" fill="#16181F"/>
<path d="M2.5 365C3.88071 365 5 363.881 5 362.5C5 361.119 3.88071 360 2.5 360C1.11929 360 0 361.119 0 362.5C0 363.881 1.11929 365 2.5 365Z" fill="#16181F"/>
<path d="M2.5 320C3.88071 320 5 318.881 5 317.5C5 316.119 3.88071 315 2.5 315C1.11929 315 0 316.119 0 317.5C0 318.881 1.11929 320 2.5 320Z" fill="#16181F"/>
<path d="M137.5 5C138.881 5 140 3.88071 140 2.5C140 1.11929 138.881 0 137.5 0C136.119 0 135 1.11929 135 2.5C135 3.88071 136.119 5 137.5 5Z" fill="#F3BB93"/>
<path d="M137.5 50C138.881 50 140 48.8807 140 47.5C140 46.1193 138.881 45 137.5 45C136.119 45 135 46.1193 135 47.5C135 48.8807 136.119 50 137.5 50Z" fill="#16181F"/>
<path d="M137.5 95C138.881 95 140 93.8807 140 92.5C140 91.1193 138.881 90 137.5 90C136.119 90 135 91.1193 135 92.5C135 93.8807 136.119 95 137.5 95Z" fill="#F3BB93"/>
<path d="M137.5 140C138.881 140 140 138.881 140 137.5C140 136.119 138.881 135 137.5 135C136.119 135 135 136.119 135 137.5C135 138.881 136.119 140 137.5 140Z" fill="#16181F"/>
<path d="M137.5 185C138.881 185 140 183.881 140 182.5C140 181.119 138.881 180 137.5 180C136.119 180 135 181.119 135 182.5C135 183.881 136.119 185 137.5 185Z" fill="#F3BB93"/>
<path d="M137.5 230C138.881 230 140 228.881 140 227.5C140 226.119 138.881 225 137.5 225C136.119 225 135 226.119 135 227.5C135 228.881 136.119 230 137.5 230Z" fill="#16181F"/>
<path d="M137.5 275C138.881 275 140 273.881 140 272.5C140 271.119 138.881 270 137.5 270C136.119 270 135 271.119 135 272.5C135 273.881 136.119 275 137.5 275Z" fill="#F3BB93"/>
<path d="M137.5 365C138.881 365 140 363.881 140 362.5C140 361.119 138.881 360 137.5 360C136.119 360 135 361.119 135 362.5C135 363.881 136.119 365 137.5 365Z" fill="#F3BB93"/>
<path d="M137.5 320C138.881 320 140 318.881 140 317.5C140 316.119 138.881 315 137.5 315C136.119 315 135 316.119 135 317.5C135 318.881 136.119 320 137.5 320Z" fill="#16181F"/>
<path d="M272.5 5C273.881 5 275 3.88071 275 2.5C275 1.11929 273.881 0 272.5 0C271.119 0 270 1.11929 270 2.5C270 3.88071 271.119 5 272.5 5Z" fill="#16181F"/>
<path d="M272.5 50C273.881 50 275 48.8807 275 47.5C275 46.1193 273.881 45 272.5 45C271.119 45 270 46.1193 270 47.5C270 48.8807 271.119 50 272.5 50Z" fill="#F3BB93"/>
<path d="M272.5 95C273.881 95 275 93.8807 275 92.5C275 91.1193 273.881 90 272.5 90C271.119 90 270 91.1193 270 92.5C270 93.8807 271.119 95 272.5 95Z" fill="#16181F"/>
<path d="M272.5 140C273.881 140 275 138.881 275 137.5C275 136.119 273.881 135 272.5 135C271.119 135 270 136.119 270 137.5C270 138.881 271.119 140 272.5 140Z" fill="#F3BB93"/>
<path d="M272.5 185C273.881 185 275 183.881 275 182.5C275 181.119 273.881 180 272.5 180C271.119 180 270 181.119 270 182.5C270 183.881 271.119 185 272.5 185Z" fill="#16181F"/>
<path d="M272.5 230C273.881 230 275 228.881 275 227.5C275 226.119 273.881 225 272.5 225C271.119 225 270 226.119 270 227.5C270 228.881 271.119 230 272.5 230Z" fill="#F3BB93"/>
<path d="M272.5 275C273.881 275 275 273.881 275 272.5C275 271.119 273.881 270 272.5 270C271.119 270 270 271.119 270 272.5C270 273.881 271.119 275 272.5 275Z" fill="#16181F"/>
<path d="M272.5 365C273.881 365 275 363.881 275 362.5C275 361.119 273.881 360 272.5 360C271.119 360 270 361.119 270 362.5C270 363.881 271.119 365 272.5 365Z" fill="#16181F"/>
<path d="M272.5 320C273.881 320 275 318.881 275 317.5C275 316.119 273.881 315 272.5 315C271.119 315 270 316.119 270 317.5C270 318.881 271.119 320 272.5 320Z" fill="#F3BB93"/>
<path d="M47.5 5C48.8807 5 50 3.88071 50 2.5C50 1.11929 48.8807 0 47.5 0C46.1193 0 45 1.11929 45 2.5C45 3.88071 46.1193 5 47.5 5Z" fill="#F3BB93"/>
<path d="M47.5 50C48.8807 50 50 48.8807 50 47.5C50 46.1193 48.8807 45 47.5 45C46.1193 45 45 46.1193 45 47.5C45 48.8807 46.1193 50 47.5 50Z" fill="#16181F"/>
<path d="M47.5 95C48.8807 95 50 93.8807 50 92.5C50 91.1193 48.8807 90 47.5 90C46.1193 90 45 91.1193 45 92.5C45 93.8807 46.1193 95 47.5 95Z" fill="#F3BB93"/>
<path d="M47.5 140C48.8807 140 50 138.881 50 137.5C50 136.119 48.8807 135 47.5 135C46.1193 135 45 136.119 45 137.5C45 138.881 46.1193 140 47.5 140Z" fill="#16181F"/>
<path d="M47.5 185C48.8807 185 50 183.881 50 182.5C50 181.119 48.8807 180 47.5 180C46.1193 180 45 181.119 45 182.5C45 183.881 46.1193 185 47.5 185Z" fill="#F3BB93"/>
<path d="M47.5 230C48.8807 230 50 228.881 50 227.5C50 226.119 48.8807 225 47.5 225C46.1193 225 45 226.119 45 227.5C45 228.881 46.1193 230 47.5 230Z" fill="#16181F"/>
<path d="M47.5 275C48.8807 275 50 273.881 50 272.5C50 271.119 48.8807 270 47.5 270C46.1193 270 45 271.119 45 272.5C45 273.881 46.1193 275 47.5 275Z" fill="#F3BB93"/>
<path d="M47.5 365C48.8807 365 50 363.881 50 362.5C50 361.119 48.8807 360 47.5 360C46.1193 360 45 361.119 45 362.5C45 363.881 46.1193 365 47.5 365Z" fill="#F3BB93"/>
<path d="M47.5 320C48.8807 320 50 318.881 50 317.5C50 316.119 48.8807 315 47.5 315C46.1193 315 45 316.119 45 317.5C45 318.881 46.1193 320 47.5 320Z" fill="#16181F"/>
<path d="M182.5 5C183.881 5 185 3.88071 185 2.5C185 1.11929 183.881 0 182.5 0C181.119 0 180 1.11929 180 2.5C180 3.88071 181.119 5 182.5 5Z" fill="#16181F"/>
<path d="M182.5 50C183.881 50 185 48.8807 185 47.5C185 46.1193 183.881 45 182.5 45C181.119 45 180 46.1193 180 47.5C180 48.8807 181.119 50 182.5 50Z" fill="#F3BB93"/>
<path d="M182.5 95C183.881 95 185 93.8807 185 92.5C185 91.1193 183.881 90 182.5 90C181.119 90 180 91.1193 180 92.5C180 93.8807 181.119 95 182.5 95Z" fill="#16181F"/>
<path d="M182.5 140C183.881 140 185 138.881 185 137.5C185 136.119 183.881 135 182.5 135C181.119 135 180 136.119 180 137.5C180 138.881 181.119 140 182.5 140Z" fill="#F3BB93"/>
<path d="M182.5 185C183.881 185 185 183.881 185 182.5C185 181.119 183.881 180 182.5 180C181.119 180 180 181.119 180 182.5C180 183.881 181.119 185 182.5 185Z" fill="#16181F"/>
<path d="M182.5 230C183.881 230 185 228.881 185 227.5C185 226.119 183.881 225 182.5 225C181.119 225 180 226.119 180 227.5C180 228.881 181.119 230 182.5 230Z" fill="#F3BB93"/>
<path d="M182.5 275C183.881 275 185 273.881 185 272.5C185 271.119 183.881 270 182.5 270C181.119 270 180 271.119 180 272.5C180 273.881 181.119 275 182.5 275Z" fill="#16181F"/>
<path d="M182.5 365C183.881 365 185 363.881 185 362.5C185 361.119 183.881 360 182.5 360C181.119 360 180 361.119 180 362.5C180 363.881 181.119 365 182.5 365Z" fill="#16181F"/>
<path d="M182.5 320C183.881 320 185 318.881 185 317.5C185 316.119 183.881 315 182.5 315C181.119 315 180 316.119 180 317.5C180 318.881 181.119 320 182.5 320Z" fill="#F3BB93"/>
<path d="M317.5 5C318.881 5 320 3.88071 320 2.5C320 1.11929 318.881 0 317.5 0C316.119 0 315 1.11929 315 2.5C315 3.88071 316.119 5 317.5 5Z" fill="#F3BB93"/>
<path d="M317.5 50C318.881 50 320 48.8807 320 47.5C320 46.1193 318.881 45 317.5 45C316.119 45 315 46.1193 315 47.5C315 48.8807 316.119 50 317.5 50Z" fill="#16181F"/>
<path d="M317.5 95C318.881 95 320 93.8807 320 92.5C320 91.1193 318.881 90 317.5 90C316.119 90 315 91.1193 315 92.5C315 93.8807 316.119 95 317.5 95Z" fill="#F3BB93"/>
<path d="M317.5 140C318.881 140 320 138.881 320 137.5C320 136.119 318.881 135 317.5 135C316.119 135 315 136.119 315 137.5C315 138.881 316.119 140 317.5 140Z" fill="#16181F"/>
<path d="M317.5 185C318.881 185 320 183.881 320 182.5C320 181.119 318.881 180 317.5 180C316.119 180 315 181.119 315 182.5C315 183.881 316.119 185 317.5 185Z" fill="#F3BB93"/>
<path d="M317.5 230C318.881 230 320 228.881 320 227.5C320 226.119 318.881 225 317.5 225C316.119 225 315 226.119 315 227.5C315 228.881 316.119 230 317.5 230Z" fill="#16181F"/>
<path d="M317.5 275C318.881 275 320 273.881 320 272.5C320 271.119 318.881 270 317.5 270C316.119 270 315 271.119 315 272.5C315 273.881 316.119 275 317.5 275Z" fill="#F3BB93"/>
<path d="M317.5 365C318.881 365 320 363.881 320 362.5C320 361.119 318.881 360 317.5 360C316.119 360 315 361.119 315 362.5C315 363.881 316.119 365 317.5 365Z" fill="#F3BB93"/>
<path d="M317.5 320C318.881 320 320 318.881 320 317.5C320 316.119 318.881 315 317.5 315C316.119 315 315 316.119 315 317.5C315 318.881 316.119 320 317.5 320Z" fill="#16181F"/>
<path d="M92.5 5C93.8807 5 95 3.88071 95 2.5C95 1.11929 93.8807 0 92.5 0C91.1193 0 90 1.11929 90 2.5C90 3.88071 91.1193 5 92.5 5Z" fill="#16181F"/>
<path d="M92.5 50C93.8807 50 95 48.8807 95 47.5C95 46.1193 93.8807 45 92.5 45C91.1193 45 90 46.1193 90 47.5C90 48.8807 91.1193 50 92.5 50Z" fill="#F3BB93"/>
<path d="M92.5 95C93.8807 95 95 93.8807 95 92.5C95 91.1193 93.8807 90 92.5 90C91.1193 90 90 91.1193 90 92.5C90 93.8807 91.1193 95 92.5 95Z" fill="#16181F"/>
<path d="M92.5 140C93.8807 140 95 138.881 95 137.5C95 136.119 93.8807 135 92.5 135C91.1193 135 90 136.119 90 137.5C90 138.881 91.1193 140 92.5 140Z" fill="#F3BB93"/>
<path d="M92.5 185C93.8807 185 95 183.881 95 182.5C95 181.119 93.8807 180 92.5 180C91.1193 180 90 181.119 90 182.5C90 183.881 91.1193 185 92.5 185Z" fill="#16181F"/>
<path d="M92.5 230C93.8807 230 95 228.881 95 227.5C95 226.119 93.8807 225 92.5 225C91.1193 225 90 226.119 90 227.5C90 228.881 91.1193 230 92.5 230Z" fill="#F3BB93"/>
<path d="M92.5 275C93.8807 275 95 273.881 95 272.5C95 271.119 93.8807 270 92.5 270C91.1193 270 90 271.119 90 272.5C90 273.881 91.1193 275 92.5 275Z" fill="#16181F"/>
<path d="M92.5 365C93.8807 365 95 363.881 95 362.5C95 361.119 93.8807 360 92.5 360C91.1193 360 90 361.119 90 362.5C90 363.881 91.1193 365 92.5 365Z" fill="#16181F"/>
<path d="M92.5 320C93.8807 320 95 318.881 95 317.5C95 316.119 93.8807 315 92.5 315C91.1193 315 90 316.119 90 317.5C90 318.881 91.1193 320 92.5 320Z" fill="#F3BB93"/>
<path d="M227.5 5C228.881 5 230 3.88071 230 2.5C230 1.11929 228.881 0 227.5 0C226.119 0 225 1.11929 225 2.5C225 3.88071 226.119 5 227.5 5Z" fill="#F3BB93"/>
<path d="M227.5 50C228.881 50 230 48.8807 230 47.5C230 46.1193 228.881 45 227.5 45C226.119 45 225 46.1193 225 47.5C225 48.8807 226.119 50 227.5 50Z" fill="#16181F"/>
<path d="M227.5 95C228.881 95 230 93.8807 230 92.5C230 91.1193 228.881 90 227.5 90C226.119 90 225 91.1193 225 92.5C225 93.8807 226.119 95 227.5 95Z" fill="#F3BB93"/>
<path d="M227.5 140C228.881 140 230 138.881 230 137.5C230 136.119 228.881 135 227.5 135C226.119 135 225 136.119 225 137.5C225 138.881 226.119 140 227.5 140Z" fill="#16181F"/>
<path d="M227.5 185C228.881 185 230 183.881 230 182.5C230 181.119 228.881 180 227.5 180C226.119 180 225 181.119 225 182.5C225 183.881 226.119 185 227.5 185Z" fill="#F3BB93"/>
<path d="M227.5 230C228.881 230 230 228.881 230 227.5C230 226.119 228.881 225 227.5 225C226.119 225 225 226.119 225 227.5C225 228.881 226.119 230 227.5 230Z" fill="#16181F"/>
<path d="M227.5 275C228.881 275 230 273.881 230 272.5C230 271.119 228.881 270 227.5 270C226.119 270 225 271.119 225 272.5C225 273.881 226.119 275 227.5 275Z" fill="#F3BB93"/>
<path d="M227.5 365C228.881 365 230 363.881 230 362.5C230 361.119 228.881 360 227.5 360C226.119 360 225 361.119 225 362.5C225 363.881 226.119 365 227.5 365Z" fill="#F3BB93"/>
<path d="M227.5 320C228.881 320 230 318.881 230 317.5C230 316.119 228.881 315 227.5 315C226.119 315 225 316.119 225 317.5C225 318.881 226.119 320 227.5 320Z" fill="#16181F"/>
<path d="M362.5 5C363.881 5 365 3.88071 365 2.5C365 1.11929 363.881 0 362.5 0C361.119 0 360 1.11929 360 2.5C360 3.88071 361.119 5 362.5 5Z" fill="#16181F"/>
<path d="M362.5 50C363.881 50 365 48.8807 365 47.5C365 46.1193 363.881 45 362.5 45C361.119 45 360 46.1193 360 47.5C360 48.8807 361.119 50 362.5 50Z" fill="#F3BB93"/>
<path d="M362.5 95C363.881 95 365 93.8807 365 92.5C365 91.1193 363.881 90 362.5 90C361.119 90 360 91.1193 360 92.5C360 93.8807 361.119 95 362.5 95Z" fill="#16181F"/>
<path d="M362.5 140C363.881 140 365 138.881 365 137.5C365 136.119 363.881 135 362.5 135C361.119 135 360 136.119 360 137.5C360 138.881 361.119 140 362.5 140Z" fill="#F3BB93"/>
<path d="M362.5 185C363.881 185 365 183.881 365 182.5C365 181.119 363.881 180 362.5 180C361.119 180 360 181.119 360 182.5C360 183.881 361.119 185 362.5 185Z" fill="#16181F"/>
<path d="M362.5 230C363.881 230 365 228.881 365 227.5C365 226.119 363.881 225 362.5 225C361.119 225 360 226.119 360 227.5C360 228.881 361.119 230 362.5 230Z" fill="#F3BB93"/>
<path d="M362.5 275C363.881 275 365 273.881 365 272.5C365 271.119 363.881 270 362.5 270C361.119 270 360 271.119 360 272.5C360 273.881 361.119 275 362.5 275Z" fill="#16181F"/>
<path d="M362.5 365C363.881 365 365 363.881 365 362.5C365 361.119 363.881 360 362.5 360C361.119 360 360 361.119 360 362.5C360 363.881 361.119 365 362.5 365Z" fill="#16181F"/>
<path d="M362.5 320C363.881 320 365 318.881 365 317.5C365 316.119 363.881 315 362.5 315C361.119 315 360 316.119 360 317.5C360 318.881 361.119 320 362.5 320Z" fill="#F3BB93"/>
</svg>
