<svg width="64" height="62" viewBox="0 0 64 62" fill="none" xmlns="http://www.w3.org/2000/svg">
<path d="M14.7699 0C12.8115 0 10.9333 0.777989 9.54843 2.16282C8.1636 3.54764 7.38561 5.42587 7.38561 7.38432C7.38561 9.34276 8.1636 11.221 9.54843 12.6058C10.9333 13.9906 12.8115 14.7686 14.7699 14.7686C16.7284 14.7686 18.6066 13.9906 19.9914 12.6058C21.3763 11.221 22.1542 9.34276 22.1542 7.38432C22.1542 5.42587 21.3763 3.54764 19.9914 2.16282C18.6066 0.777989 16.7284 0 14.7699 0ZM49.2301 0C47.2716 0 45.3934 0.777989 44.0086 2.16282C42.6237 3.54764 41.8458 5.42587 41.8458 7.38432C41.8458 9.34276 42.6237 11.221 44.0086 12.6058C45.3934 13.9906 47.2716 14.7686 49.2301 14.7686C51.1885 14.7686 53.0667 13.9906 54.4516 12.6058C55.8364 11.221 56.6144 9.34276 56.6144 7.38432C56.6144 5.42587 55.8364 3.54764 54.4516 2.16282C53.0667 0.777989 51.1885 0 49.2301 0ZM11.2316 19.6915C7.8548 19.6915 4.88546 22.012 4.06844 25.2874L0.073408 41.2483C-0.00497713 41.5621 -0.0207751 41.8883 0.0269163 42.2082C0.0746077 42.5281 0.184854 42.8355 0.351359 43.1128C0.517864 43.3901 0.737365 43.6319 0.997325 43.8243C1.25729 44.0168 1.55261 44.1561 1.86644 44.2344C2.18027 44.3127 2.50644 44.3284 2.82634 44.2807C3.14624 44.2329 3.45359 44.1226 3.73084 43.956C4.00809 43.7894 4.24981 43.5698 4.44219 43.3098C4.63457 43.0498 4.77385 42.7544 4.85206 42.4406L7.38561 32.3064V58.9928C7.38561 60.3958 8.52576 61.536 9.92878 61.536C11.2678 61.536 12.3785 60.4952 12.4671 59.1611L13.544 42.9935C13.5883 42.3486 14.1226 41.8445 14.7699 41.8445C15.4173 41.8445 15.9515 42.3462 15.9958 42.9886L17.0727 59.1611C17.1613 60.4976 18.2721 61.536 19.6111 61.536C21.0141 61.536 22.1542 60.3958 22.1542 58.9928V31.2199L23.3417 33.2438C23.5066 33.5244 23.7256 33.7696 23.9859 33.965L30.1876 38.6379C30.4215 38.8836 30.7036 39.0784 31.0163 39.2099C31.329 39.3415 31.6656 39.4069 32.0048 39.4023C32.3382 39.4048 32.6685 39.3397 32.976 39.2108C33.2834 39.0819 33.5614 38.8919 33.7932 38.6523L40.0141 33.965C40.2744 33.7696 40.4934 33.5244 40.6583 33.2438L41.8458 31.2199V58.9928C41.8458 60.3958 42.9859 61.536 44.3889 61.536C45.7279 61.536 46.8387 60.4976 46.9273 59.1611L48.0042 42.9886C48.0485 42.3462 48.5827 41.8445 49.2301 41.8445C49.8774 41.8445 50.4117 42.3486 50.456 42.9935L51.5329 59.1611C51.6215 60.4952 52.7322 61.536 54.0712 61.536C55.4742 61.536 56.6144 60.3958 56.6144 58.9928V32.3064L59.1479 42.4406C59.2262 42.7544 59.3654 43.0498 59.5578 43.3098C59.7502 43.5698 59.9919 43.7894 60.2692 43.956C60.5464 44.1225 60.8538 44.2329 61.1737 44.2806C61.4936 44.3284 61.8197 44.3127 62.1336 44.2344C62.4474 44.1561 62.7427 44.0168 63.0027 43.8243C63.2626 43.6319 63.4821 43.3901 63.6486 43.1128C63.8151 42.8355 63.9254 42.5281 63.9731 42.2082C64.0208 41.8883 64.005 41.5621 63.9266 41.2483L59.9364 25.2874C59.1193 22.012 56.15 19.6915 52.7732 19.6915H47.1292C44.5126 19.6915 42.0813 21.0804 40.7593 23.3404L36.6585 30.3305L32 33.84L27.3415 30.3305L23.2407 23.3404C21.9187 21.0803 19.4874 19.6915 16.8708 19.6915H14.7699H11.2316Z" fill="white"/>
</svg>
